Coordinates
version=1
nRows=18
nColumns=34
inDegrees=yes
inDegrees=no

Units are S.I. units (second, meters, Newtons, ...)
If the header above contains a line with 'inDegrees', this indicates whether rotational values are in degrees (yes) or radians (no).

endheader
time	pelvis_tilt	pelvis_list	pelvis_rotation	pelvis_tx	pelvis_ty	pelvis_tz	hip_flexion_r	hip_adduction_r	hip_rotation_r	knee_angle_r	ankle_angle_r	subtalar_angle_r	mtp_angle_r	hip_flexion_l	hip_adduction_l	hip_rotation_l	knee_angle_l	ankle_angle_l	subtalar_angle_l	mtp_angle_l	lumbar_extension	lumbar_bending	lumbar_rotation	arm_flex_r	arm_add_r	arm_rot_r	elbow_flex_r	pro_sup_r	arm_flex_l	arm_add_l	arm_rot_l	elbow_flex_l	pro_sup_l
2.700000 0.188066 -0.196703 0.057883 -0.014348 0.008284 -0.004620 1.417965 -0.006516 -0.243171 0.887991 0.428118 0.112565 0.000000 1.398804 0.005431 -0.035956 0.629492 -0.150351 -0.190138 0.000000 -0.970361 0.003404 0.146270 1.528412 0.117551 0.378539 1.009297 1.363835 0.350610 -0.195152 -0.177527 1.214709 1.095940
2.716667 0.205822 -0.192885 0.065456 -0.014445 0.008294 -0.004639 1.396233 -0.006525 -0.235186 0.867943 0.449369 0.115702 0.000000 1.374735 0.008965 -0.052379 0.612245 -0.150590 -0.160102 0.000000 -0.955907 -0.001276 0.150479 1.458969 0.117361 0.340580 0.995109 1.360695 0.240760 -0.212730 -0.222391 1.257410 1.102460
2.733333 0.218271 -0.187961 0.071225 -0.014540 0.008252 -0.004635 1.385456 -0.007702 -0.227394 0.860195 0.457802 0.146591 0.000000 1.359316 0.015030 -0.058892 0.598749 -0.150043 -0.140467 0.000000 -0.933800 -0.001366 0.171388 1.388509 0.091760 0.340805 0.979717 1.360691 0.159661 -0.239524 -0.214286 1.269615 1.106586
2.750000 0.214755 -0.178735 0.070209 -0.014498 0.008336 -0.004603 1.383581 -0.006042 -0.224721 0.862889 0.476980 0.206262 0.000000 1.351620 0.021579 -0.061306 0.586727 -0.146359 -0.128257 0.000000 -0.900325 -0.010556 0.193646 1.301808 0.058470 0.346525 0.994767 1.360966 0.079601 -0.271259 -0.196491 1.260323 1.110959
2.766667 0.221307 -0.176192 0.071842 -0.014606 0.008212 -0.004494 1.379100 -0.004011 -0.226098 0.862426 0.491789 0.250438 0.000000 1.343722 0.024115 -0.055429 0.575065 -0.141114 -0.123072 0.000000 -0.868809 -0.008907 0.224667 1.226240 0.029020 0.373677 1.005580 1.362350 -0.000193 -0.314961 -0.166555 1.271261 1.115406
2.783333 0.233940 -0.177064 0.076572 -0.014793 0.008225 -0.004468 1.351270 0.000335 -0.237900 0.818128 0.510974 0.270616 0.000000 1.332255 0.031491 -0.035214 0.566074 -0.144811 -0.134537 0.000000 -0.849123 -0.002258 0.254864 1.180692 -0.000076 0.406402 0.998754 1.363149 -0.077669 -0.362287 -0.113425 1.284624 1.120386
2.800000 0.240221 -0.172698 0.073231 -0.014825 0.008223 -0.004421 1.333057 0.005311 -0.251401 0.788169 0.557481 0.301454 0.000000 1.324712 0.032831 -0.017607 0.562365 -0.153301 -0.148280 0.000000 -0.822950 -0.004197 0.283456 1.141146 -0.034295 0.445200 0.988923 1.360486 -0.157376 -0.417944 -0.038702 1.289808 1.123353
2.816667 0.252689 -0.176375 0.063715 -0.014986 0.008112 -0.004338 1.319820 0.018383 -0.259265 0.763994 0.542760 0.306825 0.000000 1.327863 0.024172 0.004346 0.582176 -0.154392 -0.166494 0.000000 -0.801621 0.003138 0.312496 1.114518 -0.054547 0.468129 0.969413 1.359344 -0.234353 -0.469882 0.006532 1.346026 1.127915
2.833333 0.273835 -0.170486 0.056207 -0.015103 0.008082 -0.004330 1.302113 0.025227 -0.259736 0.752000 0.517255 0.303276 0.000000 1.311116 0.023285 0.014519 0.576614 -0.173713 -0.194267 0.000000 -0.796377 0.003579 0.323381 1.100234 -0.075227 0.517133 0.943685 1.354281 -0.303750 -0.529360 0.062366 1.430028 1.131672
2.850000 0.295899 -0.170543 0.047642 -0.015178 0.008107 -0.004254 1.278552 0.036885 -0.266853 0.737044 0.478035 0.297867 0.000000 1.291350 0.014781 0.024411 0.570223 -0.188456 -0.215882 0.000000 -0.796569 0.010564 0.323809 1.086463 -0.082412 0.562883 0.923154 1.337968 -0.373162 -0.570562 0.068946 1.536163 1.133864
2.866667 0.307970 -0.170992 0.047933 -0.015210 0.008078 -0.004232 1.270449 0.034625 -0.280496 0.734818 0.461443 0.288537 0.000000 1.292475 0.017583 0.047587 0.584239 -0.204529 -0.235721 0.000000 -0.783191 0.026879 0.325526 1.060462 -0.092141 0.567301 0.903300 1.334081 -0.407554 -0.603278 0.086726 1.621655 1.139557
2.883333 0.331329 -0.158705 0.058692 -0.015356 0.008101 -0.004194 1.244137 0.025458 -0.276937 0.716618 0.402364 0.272377 0.000000 1.270095 0.028819 0.046214 0.587896 -0.215765 -0.240951 0.000000 -0.794466 0.027321 0.294558 1.046702 -0.088015 0.571902 0.898240 1.322386 -0.449999 -0.629560 0.070636 1.711283 1.148477
2.900000 0.345900 -0.151771 0.065621 -0.015304 0.008153 -0.004188 1.229346 0.016716 -0.282956 0.721526 0.390539 0.260864 0.000000 1.252895 0.036771 0.051917 0.588279 -0.221688 -0.253208 0.000000 -0.791991 0.035324 0.272194 1.026855 -0.086080 0.564170 0.885438 1.317876 -0.462360 -0.640675 0.073896 1.745582 1.153887
2.916667 0.352182 -0.141244 0.073737 -0.015208 0.008142 -0.004154 1.221972 0.006045 -0.281858 0.716089 0.368531 0.244199 0.000000 1.246137 0.044197 0.052269 0.597752 -0.211219 -0.248591 0.000000 -0.778444 0.036695 0.245659 1.004139 -0.082074 0.538618 0.876578 1.312100 -0.463049 -0.637634 0.072934 1.753224 1.160065
2.933333 0.362510 -0.136078 0.076169 -0.015209 0.008188 -0.004161 1.207181 0.002393 -0.280829 0.714392 0.341512 0.216620 0.000000 1.225770 0.043836 0.049137 0.589206 -0.199122 -0.246367 0.000000 -0.764662 0.042054 0.229449 0.981115 -0.080715 0.497763 0.868522 1.307801 -0.419616 -0.624545 0.080574 1.735800 1.171940
2.950000 0.379201 -0.125690 0.080380 -0.015245 0.008149 -0.004097 1.184063 -0.009119 -0.271761 0.680197 0.209134 0.057455 0.000000 1.212112 0.047510 0.045848 0.599062 -0.190772 -0.259000 0.000000 -0.759015 0.041001 0.211920 0.969428 -0.084652 0.467289 0.870880 1.307348 -0.367490 -0.616932 0.080337 1.726261 1.179897
2.966667 0.379873 -0.105322 0.092477 -0.014927 0.008178 -0.004038 1.167945 -0.029898 -0.255041 0.635316 0.024108 -0.120353 0.000000 1.212410 0.063437 0.033044 0.612015 -0.189071 -0.278156 0.000000 -0.724796 0.024919 0.199996 0.911406 -0.101148 0.396245 0.907690 1.315232 -0.297211 -0.621455 0.114529 1.690450 1.197018
2.983333 0.370686 -0.098166 0.102453 -0.014833 0.008182 -0.004015 1.161599 -0.043918 -0.260128 0.617010 -0.082899 -0.224315 0.000000 1.225692 0.071456 0.026531 0.622423 -0.199956 -0.292964 0.000000 -0.685677 0.016907 0.191703 0.868279 -0.125286 0.348405 0.945514 1.327465 -0.241659 -0.609731 0.129306 1.647921 1.206185
